# xmcd CD database file
# Generated: Don Mär 27 11:29:10 2003 by KSCD
# 
# Track frame offsets:
#       150
#       10929
#       21192
#       30986
#       51618
#       63760
#       76107
#       86260
#       99201
#       111414
#       121648
#       133499
#       147122
#       178070
#       189666
#       206542
#       217670
#
# Disc length: 3370 seconds
#
# Revision: 1
# Processed by: cddbd v1.4PL0 Copyright (c) Steve Scherf et al.
# Submitted via: Kscd 1.3.3
#
DISCID=dc0d2811
DTITLE=Dave Brubeck - I hear a rhapsody
DYEAR=1900
DGENRE=Jazz
TTITLE0=Let's fall in love
TTITLE1=I hear a rhapsody
TTITLE2=Laura
TTITLE3=Serenade suite
TTITLE4=IPCA
TTITLE5=Fugue on bop themes
TTITLE6=Prelude
TTITLE7=September in the rain
TTITLE8=What is this thing called love
TTITLE9=Schizophrenic scherzo
TTITLE10=Love walked in
TTITLE11=The way you look tonight
TTITLE12=How high the moon
TTITLE13=Back home again in Indiana
TTITLE14=Body and soul
TTITLE15=Undecided
TTITLE16=Perdido
EXTD=
EXTT0=
EXTT1=
EXTT2=
EXTT3=
EXTT4=
EXTT5=
EXTT6=
EXTT7=
EXTT8=
EXTT9=
EXTT10=
EXTT11=
EXTT12=
EXTT13=
EXTT14=
EXTT15=
EXTT16=
PLAYORDER=
